<svg width="102" height="102" viewBox="0 0 102 102" fill="none" xmlns="http://www.w3.org/2000/svg">
<g clip-path="url(#clip0_1_865)">
<path d="M51.0004 77.581C72.0112 77.581 89.0438 60.5483 89.0438 39.5375C89.0438 18.5268 72.0112 1.49414 51.0004 1.49414C29.9896 1.49414 12.957 18.5268 12.957 39.5375C12.957 60.5483 29.9896 77.581 51.0004 77.581Z" fill="#FFD15B"/>
<path d="M31.2844 57.2385H22.4297C20.8003 57.2385 19.252 57.589 17.8521 58.2139C22.7158 66.8281 30.8383 73.3579 40.5477 76.1265C41.8005 74.5986 42.5538 72.6461 42.5538 70.5204V68.5079C42.554 62.2941 37.4984 57.2385 31.2844 57.2385Z" fill="#FFC344"/>
<path d="M74.2449 9.42188C79.214 15.8505 82.1726 23.9122 82.1726 32.6661C82.1726 42.034 78.7845 50.6094 73.1697 57.2386H70.7167C64.851 57.2386 60.0199 61.7439 59.4963 67.4754C54.7966 69.5533 49.5982 70.7097 44.129 70.7097C35.3751 70.7097 27.3134 67.7511 20.8848 62.782C27.8425 71.7831 38.7435 77.5812 51.0005 77.5812C72.0113 77.5812 89.0439 60.5486 89.0439 39.5378C89.0441 27.2806 83.246 16.3794 74.2449 9.42188Z" fill="#FFC344"/>
<path d="M65.9127 43.9841C67.6243 43.9841 68.8983 45.5408 68.59 47.2234C67.0673 55.5535 59.7711 61.8669 50.9999 61.8669C42.2287 61.8669 34.9325 55.5533 33.4099 47.2234C33.1017 45.5406 34.3755 43.9841 36.0872 43.9841H65.9127Z" fill="#F37C7C"/>
<path d="M93.8081 100.506H8.19165C6.41343 100.506 4.97168 99.0643 4.97168 97.2858V71.5269C4.97168 69.7486 6.41323 68.3069 8.19165 68.3069H93.8083C95.5865 68.3069 97.0283 69.7484 97.0283 71.5269V97.286C97.0281 99.0643 95.5865 100.506 93.8081 100.506Z" fill="#36ACF2"/>
<path d="M90.7833 68.5073V70.5214C90.7833 75.3724 86.8368 79.3189 81.9858 79.3189H68.3014C63.4485 79.3189 59.502 75.3724 59.502 70.5214V68.5073C59.502 68.4396 59.5019 68.3738 59.5039 68.3061H90.7813C90.7833 68.3738 90.7833 68.4396 90.7833 68.5073Z" fill="#D8ECFE"/>
<path d="M68.301 73.7404H81.9856C83.7638 73.7404 85.2055 72.2988 85.2055 70.5204V68.5079C85.2055 65.3959 82.6828 62.873 79.5706 62.873H70.716C67.604 62.873 65.0811 65.3957 65.0811 68.5079V70.5204C65.0813 72.2988 66.5228 73.7404 68.301 73.7404Z" fill="#FFE177"/>
<path d="M79.5716 62.8735H74.7417C77.8537 62.8735 80.3766 65.3962 80.3766 68.5084V70.5209C80.3766 72.2992 78.9351 73.7409 77.1566 73.7409H81.9865C83.7647 73.7409 85.2065 72.2994 85.2065 70.5209V68.5084C85.2063 65.3962 82.6836 62.8735 79.5716 62.8735Z" fill="#FFD15B"/>
<path d="M42.4976 68.5073V70.5214C42.4976 75.3724 38.5511 79.3189 33.6981 79.3189H20.0138C15.1628 79.3189 11.2163 75.3724 11.2163 70.5214V68.5073C11.2163 68.4396 11.2163 68.3738 11.2183 68.3061H42.4956C42.4976 68.3738 42.4976 68.4396 42.4976 68.5073Z" fill="#D8ECFE"/>
<path d="M33.6989 73.7404H20.0144C18.2362 73.7404 16.7944 72.2988 16.7944 70.5204V68.5079C16.7944 65.3959 19.3171 62.873 22.4293 62.873H31.284C34.396 62.873 36.9189 65.3957 36.9189 68.5079V70.5204C36.9189 72.2988 35.4774 73.7404 33.6989 73.7404Z" fill="#FFE177"/>
<path d="M31.283 62.8735H26.4531C29.5651 62.8735 32.088 65.3962 32.088 68.5084V70.5209C32.088 72.2992 30.6465 73.7409 28.8681 73.7409H33.6979C35.4761 73.7409 36.9179 72.2994 36.9179 70.5209V68.5084C36.9179 65.3962 34.395 62.8735 31.283 62.8735Z" fill="#FFD15B"/>
<path d="M83.2732 19.384C86.9289 25.2271 89.0426 32.136 89.0426 39.5369C89.0426 48.4082 86.0085 56.5682 80.9185 63.0368" stroke="black" stroke-width="4.45312" stroke-miterlimit="10" stroke-linecap="round" stroke-linejoin="round"/>
<path d="M21.0797 63.0368C15.9916 56.5682 12.9575 48.4062 12.9575 39.537C12.9575 18.5273 29.9887 1.49414 51.0003 1.49414C62.1048 1.49414 72.0976 6.25148 79.0523 13.8397" stroke="black" stroke-width="4.45312" stroke-miterlimit="10" stroke-linecap="round" stroke-linejoin="round"/>
<path d="M65.9122 43.9841C67.6239 43.9841 68.8979 45.5408 68.5895 47.2234C67.0668 55.5535 59.7706 61.8669 50.9994 61.8669C42.2282 61.8669 34.9321 55.5533 33.4094 47.2234C33.1012 45.5406 34.375 43.9841 36.0867 43.9841H65.9122Z" stroke="black" stroke-width="4.45312" stroke-miterlimit="10" stroke-linecap="round" stroke-linejoin="round"/>
<path d="M16.8003 68.3062H8.19305C6.41402 68.3062 4.97168 69.7485 4.97168 71.5275V97.2865C4.97168 99.0635 6.41402 100.506 8.19305 100.506H23.4522" stroke="black" stroke-width="4.45312" stroke-miterlimit="10" stroke-linecap="round" stroke-linejoin="round"/>
<path d="M85.2005 68.3062H93.8083C95.5874 68.3062 97.0297 69.7485 97.0297 71.5275V97.2865C97.0297 99.0635 95.5874 100.506 93.8083 100.506H30.4253" stroke="black" stroke-width="4.45312" stroke-miterlimit="10" stroke-linecap="round" stroke-linejoin="round"/>
<path d="M51.8332 68.3062H36.9141" stroke="black" stroke-width="4.45312" stroke-miterlimit="10" stroke-linecap="round" stroke-linejoin="round"/>
<path d="M65.0869 68.3062H58.8052" stroke="black" stroke-width="4.45312" stroke-miterlimit="10" stroke-linecap="round" stroke-linejoin="round"/>
<path d="M68.301 73.7404H81.9856C83.7638 73.7404 85.2055 72.2988 85.2055 70.5204V68.5079C85.2055 65.3959 82.6828 62.873 79.5706 62.873H70.716C67.604 62.873 65.0811 65.3957 65.0811 68.5079V70.5204C65.0813 72.2988 66.5228 73.7404 68.301 73.7404Z" stroke="black" stroke-width="4.45312" stroke-miterlimit="10" stroke-linecap="round" stroke-linejoin="round"/>
<path d="M33.6999 73.7404H20.0154C18.2372 73.7404 16.7954 72.2988 16.7954 70.5204V68.5079C16.7954 65.3959 19.3181 62.873 22.4303 62.873H31.285C34.397 62.873 36.9199 65.3957 36.9199 68.5079V70.5204C36.9199 72.2988 35.4783 73.7404 33.6999 73.7404Z" stroke="black" stroke-width="4.45312" stroke-miterlimit="10" stroke-linecap="round" stroke-linejoin="round"/>
<path d="M39.4805 92.4982L43.52 81.892C43.6025 81.6902 43.8882 81.69 43.9713 81.8916L47.9742 92.4984" stroke="white" stroke-width="4.45312" stroke-miterlimit="10" stroke-linecap="round" stroke-linejoin="round"/>
<path d="M40.7402 89.8565H46.7345" stroke="white" stroke-width="4.45312" stroke-miterlimit="10" stroke-linecap="round" stroke-linejoin="round"/>
<path d="M55.3315 92.4981V81.7604L62.8702 92.4981L62.87 81.7403" stroke="white" stroke-width="4.45312" stroke-miterlimit="10" stroke-linecap="round" stroke-linejoin="round"/>
<path d="M70.252 81.7403V92.4981" stroke="white" stroke-width="4.45312" stroke-miterlimit="10" stroke-linecap="round" stroke-linejoin="round"/>
<path d="M76.0388 81.876L70.5962 86.8788L76.4207 92.4981" stroke="white" stroke-width="4.45312" stroke-miterlimit="10" stroke-linecap="round" stroke-linejoin="round"/>
<path d="M24.6582 81.7403V92.4981" stroke="white" stroke-width="4.45312" stroke-miterlimit="10" stroke-linecap="round" stroke-linejoin="round"/>
<path d="M32.1025 81.7403V92.4981" stroke="white" stroke-width="4.45312" stroke-miterlimit="10" stroke-linecap="round" stroke-linejoin="round"/>
<path d="M24.6582 86.9348H32.1028" stroke="white" stroke-width="4.45312" stroke-miterlimit="10" stroke-linecap="round" stroke-linejoin="round"/>
<path d="M90.3116 82.8462C90.3116 82.8462 88.3811 81.2236 86.1049 81.9093C84.0146 82.539 83.6491 85.0715 85.2345 85.9349C85.976 86.3387 86.7182 86.5969 88.3642 87.2039C92.3259 88.6652 90.6193 92.498 87.43 92.498C85.8329 92.498 84.4926 91.7985 83.6812 90.9032" stroke="white" stroke-width="4.45312" stroke-miterlimit="10" stroke-linecap="round" stroke-linejoin="round"/>
<path d="M11.3345 81.7404H17.2756" stroke="white" stroke-width="4.45312" stroke-miterlimit="10" stroke-linecap="round" stroke-linejoin="round"/>
<path d="M14.2935 82.0839V92.4982" stroke="white" stroke-width="4.45312" stroke-miterlimit="10" stroke-linecap="round" stroke-linejoin="round"/>
<path d="M44.3421 30.2897C44.3421 27.4007 42 25.0587 39.111 25.0587C36.2219 25.0587 33.8799 27.4007 33.8799 30.2897" stroke="black" stroke-width="4.45312" stroke-miterlimit="10" stroke-linecap="round" stroke-linejoin="round"/>
<path d="M57.6577 30.2897C57.6577 27.4007 59.9997 25.0587 62.8888 25.0587C65.7779 25.0587 68.1199 27.4007 68.1199 30.2897" stroke="black" stroke-width="4.45312" stroke-miterlimit="10" stroke-linecap="round" stroke-linejoin="round"/>
</g>
<defs>
<clipPath id="clip0_1_865">
<rect width="102" height="102" fill="white"/>
</clipPath>
</defs>
</svg>
