<svg width="18" height="18" viewBox="0 0 18 18" fill="none" xmlns="http://www.w3.org/2000/svg">
<g clip-path="url(#clip0_1_1783)">
<path d="M17.7188 1.36596C17.7188 1.07486 17.6054 0.801063 17.3995 0.595413C16.9876 0.183528 16.2702 0.183528 15.8583 0.595413L9 7.45377L2.14165 0.595413C1.72976 0.183528 1.01242 0.183528 0.600536 0.595413C0.394616 0.801063 0.28125 1.07487 0.28125 1.36596C0.28125 1.65704 0.394616 1.93083 0.600542 2.13652L7.4589 8.99487L0.600542 15.8532C0.394616 16.0589 0.28125 16.3327 0.28125 16.6238C0.28125 16.9148 0.394616 17.1886 0.600542 17.3943C1.01243 17.8062 1.72977 17.8062 2.14165 17.3943L9 10.536L15.8584 17.3943C16.0643 17.6003 16.3378 17.7136 16.6289 17.7136C16.92 17.7136 17.1935 17.6003 17.3995 17.3943C17.6054 17.1887 17.7188 16.9148 17.7188 16.6238C17.7188 16.3327 17.6054 16.0589 17.3995 15.8532L10.5411 8.99487L17.3995 2.13652C17.6054 1.93084 17.7188 1.65704 17.7188 1.36596Z" fill="#36ACF2"/>
</g>
<defs>
<clipPath id="clip0_1_1783">
<rect width="18" height="18" fill="white"/>
</clipPath>
</defs>
</svg>
