<svg aria-hidden="true" xmlns="http://www.w3.org/2000/svg" xmlns:xlink="http://www.w3.org/1999/xlink"><symbol viewBox="0 0 18 18" id="star" xmlns="http://www.w3.org/2000/svg">
<g id="afree-icon-star-1828884 5" clip-path="url(#aclip0_1_1429)">
<path id="aVector" d="M17.9531 6.90472C17.8353 6.54024 17.512 6.28137 17.1295 6.2469L11.9342 5.77516L9.87984 0.966735C9.72837 0.61434 9.38339 0.38623 9.00009 0.38623C8.6168 0.38623 8.27182 0.61434 8.12034 0.967559L6.06598 5.77516L0.869863 6.2469C0.488078 6.28219 0.165621 6.54024 0.0471028 6.90472C-0.0714153 7.2692 0.0380389 7.66898 0.326849 7.92098L4.25388 11.365L3.09589 16.466C3.01115 16.841 3.15673 17.2287 3.46792 17.4537C3.63519 17.5745 3.83089 17.636 4.02824 17.636C4.19839 17.636 4.36718 17.5902 4.51865 17.4995L9.00009 14.8211L13.4799 17.4995C13.8077 17.6967 14.2209 17.6787 14.5314 17.4537C14.8428 17.228 14.9882 16.8402 14.9035 16.466L13.7455 11.365L17.6725 7.92167C17.9613 7.66898 18.0716 7.26989 17.9531 6.90472Z"/>
</g>
<defs>
<clipPath id="aclip0_1_1429">
<rect width="18" height="18"/>
</clipPath>
</defs>
</symbol><symbol viewBox="0 0 26 21" id="telegram" xmlns="http://www.w3.org/2000/svg">
<path d="M1.21063 8.66958L24.2684 0.104824C25.3386 -0.267641 26.2733 0.356334 25.9265 1.91531L25.9285 1.91339L22.0025 19.7322C21.7115 20.9955 20.9323 21.3027 19.8422 20.7075L13.8635 16.4625L10.9798 19.1389C10.6609 19.4461 10.3919 19.7053 9.77409 19.7053L10.1986 13.8438L21.2791 4.20001C21.7613 3.79107 21.1714 3.56068 20.5357 3.9677L6.84255 12.2733L0.939596 10.4993C-0.341834 10.1076 -0.369735 9.26476 1.21063 8.66958Z"/>
</symbol></svg>