<svg width="58" height="55" viewBox="0 0 58 55" fill="none" xmlns="http://www.w3.org/2000/svg">
<path d="M57.8487 20.7838C57.469 19.6217 56.4273 18.7963 55.1949 18.6864L38.4546 17.1823L31.835 1.85091C31.3469 0.727314 30.2353 0 29.0002 0C27.7652 0 26.6536 0.727314 26.1655 1.85353L19.5459 17.1823L2.80288 18.6864C1.57269 18.7989 0.533666 19.6217 0.151775 20.7838C-0.230115 21.946 0.122569 23.2206 1.05318 24.0241L13.7069 35.0052L9.97561 51.2693C9.70258 52.4651 10.1716 53.7013 11.1744 54.4185C11.7134 54.8038 12.344 55 12.9799 55C13.5281 55 14.072 54.8537 14.5601 54.5648L29.0002 46.0248L43.4351 54.5648C44.4914 55.1935 45.8229 55.1362 46.8234 54.4185C47.8266 53.6991 48.2952 52.4625 48.0222 51.2693L44.2909 35.0052L56.9446 24.0263C57.8752 23.2206 58.2306 21.9482 57.8487 20.7838Z" fill="#B8B8B8"/>
</svg>
