<svg width="20" height="20" viewBox="0 0 20 20" fill="none" xmlns="http://www.w3.org/2000/svg">
<g clip-path="url(#clip0_1_1445)">
<path d="M0.472188 6.95653C0.165859 7.91622 -3.90556e-05 8.9386 6.89667e-09 9.99989C-3.90556e-05 11.0612 0.165898 12.0837 0.472227 13.0434L10 13.4782L19.5278 13.0434C19.8341 12.0837 20 11.0612 20 9.99997C20 8.93864 19.8341 7.91622 19.5278 6.95649L10 6.52173L0.472188 6.95653Z" fill="#F0F0F0"/>
<path d="M19.5278 6.95656L10.0001 6.52179L0.472246 6.95656C0.381465 7.24109 0.303301 7.5312 0.237793 7.82613H19.7622C19.6967 7.53116 19.6186 7.24101 19.5278 6.95656Z" fill="#D80027"/>
<path d="M0.237793 12.1739C0.303223 12.4688 0.381387 12.7589 0.472168 13.0434L0.473106 13.0435L9.9999 13.4782L19.5277 13.0435C19.6185 12.7589 19.6966 12.4688 19.7621 12.1739H0.237793Z" fill="#D80027"/>
<path d="M9.9999 20C14.4615 20 18.24 17.078 19.5277 13.0435H0.472168C1.75986 17.0779 5.53846 20 9.9999 20Z" fill="#6DA544"/>
<path d="M9.99994 6.10355e-05C5.53846 0.000100098 1.75994 2.92209 0.472168 6.95658L19.5277 6.95662C18.2401 2.92205 14.4615 2.1973e-05 9.99994 6.10355e-05Z" fill="#338AF3"/>
<path d="M4.56996 4.13062C4.56996 3.19402 5.2282 2.41159 6.10723 2.21964C5.97215 2.19011 5.83195 2.17413 5.68797 2.17413C4.60742 2.17413 3.73145 3.05007 3.73145 4.13066C3.73145 5.21124 4.60734 6.08718 5.68797 6.08718C5.83195 6.08718 5.97211 6.07116 6.10723 6.04167C5.22824 5.84964 4.56996 5.06722 4.56996 4.13062Z" fill="#F0F0F0"/>
<path d="M7.26373 5.01978L7.39615 5.42739H7.82475L7.47803 5.67935L7.61045 6.08696L7.26373 5.83505L6.91693 6.08696L7.04939 5.67935L6.70264 5.42739H7.13123L7.26373 5.01978Z" fill="#F0F0F0"/>
<path d="M8.63182 5.01978L8.76428 5.42739H9.19287L8.84611 5.67935L8.97857 6.08696L8.63182 5.83505L8.28506 6.08696L8.41752 5.67935L8.0708 5.42739H8.49936L8.63182 5.01978Z" fill="#F0F0F0"/>
<path d="M9.99957 5.01978L10.132 5.42739H10.5606L10.2139 5.67935L10.3463 6.08696L9.99957 5.83505L9.65277 6.08696L9.78527 5.67935L9.43848 5.42739H9.86711L9.99957 5.01978Z" fill="#F0F0F0"/>
<path d="M11.3677 5.01978L11.5002 5.42739H11.9288L11.582 5.67935L11.7145 6.08696L11.3677 5.83505L11.0209 6.08696L11.1534 5.67935L10.8066 5.42739H11.2352L11.3677 5.01978Z" fill="#F0F0F0"/>
<path d="M12.7358 5.01978L12.8683 5.42739H13.2969L12.9502 5.67935L13.0826 6.08696L12.7358 5.83505L12.3891 6.08696L12.5215 5.67935L12.1748 5.42739H12.6034L12.7358 5.01978Z" fill="#F0F0F0"/>
<path d="M8.63182 3.59686L8.76428 4.00444H9.19287L8.84611 4.25643L8.97857 4.66401L8.63182 4.4121L8.28506 4.66401L8.41752 4.25643L8.0708 4.00444H8.49936L8.63182 3.59686Z" fill="#F0F0F0"/>
<path d="M9.99957 3.59686L10.132 4.00444H10.5606L10.2139 4.25643L10.3463 4.66401L9.99957 4.4121L9.65277 4.66401L9.78527 4.25643L9.43848 4.00444H9.86711L9.99957 3.59686Z" fill="#F0F0F0"/>
<path d="M11.3677 3.59686L11.5002 4.00444H11.9288L11.582 4.25643L11.7145 4.66401L11.3677 4.4121L11.0209 4.66401L11.1534 4.25643L10.8066 4.00444H11.2352L11.3677 3.59686Z" fill="#F0F0F0"/>
<path d="M12.7358 3.59686L12.8683 4.00444H13.2969L12.9502 4.25643L13.0826 4.66401L12.7358 4.4121L12.3891 4.66401L12.5215 4.25643L12.1748 4.00444H12.6034L12.7358 3.59686Z" fill="#F0F0F0"/>
<path d="M9.99957 2.17389L10.132 2.58155H10.5606L10.2139 2.83346L10.3463 3.24112L9.99957 2.9892L9.65277 3.24112L9.78527 2.83346L9.43848 2.58155H9.86711L9.99957 2.17389Z" fill="#F0F0F0"/>
<path d="M11.3677 2.17389L11.5002 2.58155H11.9288L11.582 2.83346L11.7145 3.24112L11.3677 2.9892L11.0209 3.24112L11.1534 2.83346L10.8066 2.58155H11.2352L11.3677 2.17389Z" fill="#F0F0F0"/>
<path d="M12.7358 2.17389L12.8683 2.58155H13.2969L12.9502 2.83346L13.0826 3.24112L12.7358 2.9892L12.3891 3.24112L12.5215 2.83346L12.1748 2.58155H12.6034L12.7358 2.17389Z" fill="#F0F0F0"/>
</g>
<defs>
<clipPath id="clip0_1_1445">
<rect width="20" height="20" fill="white"/>
</clipPath>
</defs>
</svg>
