<svg width="20" height="20" viewBox="0 0 20 20" fill="none" xmlns="http://www.w3.org/2000/svg">
<g clip-path="url(#clip0_1_1518)">
<path d="M10 20C15.5228 20 20 15.5228 20 10C20 4.47715 15.5228 0 10 0C4.47715 0 0 4.47715 0 10C0 15.5228 4.47715 20 10 20Z" fill="#F0F0F0"/>
<path d="M9.13023 10C9.13023 10 2.93457 17.0725 2.92871 17.0711C4.73832 18.8807 7.23836 20 9.9998 20C15.5226 20 19.9998 15.5228 19.9998 10H9.13023Z" fill="#D80027"/>
<path d="M2.92893 2.92889C-0.976309 6.83413 -0.976309 13.1658 2.92893 17.0711C4.54271 15.4573 6.09478 13.9052 10 9.99999L2.92893 2.92889Z" fill="#0052B4"/>
</g>
<defs>
<clipPath id="clip0_1_1518">
<rect width="20" height="20" fill="white"/>
</clipPath>
</defs>
</svg>
