<svg width="20" height="20" viewBox="0 0 20 20" fill="none" xmlns="http://www.w3.org/2000/svg">
<g clip-path="url(#clip0_1_1498)">
<path d="M14.3479 0.992266C13.0332 0.356562 11.5583 0 10.0001 0C8.44189 0 6.96697 0.356562 5.65229 0.992266L4.78271 10L5.65229 19.0077C6.96697 19.6434 8.44189 20 10.0001 20C11.5583 20 13.0332 19.6434 14.3479 19.0077L15.2175 10L14.3479 0.992266Z" fill="#FFDA44"/>
<path d="M5.65219 0.992615C2.30727 2.61008 0 6.03543 0 10C0 13.9646 2.30727 17.3899 5.65219 19.0074V0.992615Z" fill="#0052B4"/>
<path d="M14.3477 0.992615V19.0074C17.6926 17.3899 19.9998 13.9646 19.9998 10C19.9998 6.03543 17.6926 2.61008 14.3477 0.992615Z" fill="#D80027"/>
<path d="M13.4785 7.86796H11.0872C11.0872 7.26765 10.6005 6.78101 10.0002 6.78101C9.3999 6.78101 8.91326 7.26765 8.91326 7.86796H6.52197C6.52197 8.45901 7.03686 8.93812 7.62783 8.93812H7.59221C7.59221 9.52921 8.07135 10.0084 8.66244 10.0084C8.66244 10.5317 9.0383 10.9666 9.53471 11.0595L8.69135 12.9635C9.09545 13.1278 9.53709 13.2191 10.0002 13.2191C10.4633 13.2191 10.905 13.1278 11.309 12.9635L10.4657 11.0595C10.9621 10.9666 11.338 10.5317 11.338 10.0084C11.9291 10.0084 12.4082 9.52921 12.4082 8.93812H12.3726C12.9636 8.93812 13.4785 8.45897 13.4785 7.86796Z" fill="#FF9811"/>
<path d="M9.99996 9.34784L8.58691 10V11.3044L9.99996 12.1739L11.413 11.3044V10L9.99996 9.34784Z" fill="#0052B4"/>
<path d="M8.58691 8.69568H11.413V10H8.58691V8.69568Z" fill="#D80027"/>
</g>
<defs>
<clipPath id="clip0_1_1498">
<rect width="20" height="20" fill="white"/>
</clipPath>
</defs>
</svg>
