<svg width="20" height="20" viewBox="0 0 20 20" fill="none" xmlns="http://www.w3.org/2000/svg">
<g clip-path="url(#clip0_1_1485)">
<path d="M10 20C15.5228 20 20 15.5228 20 10C20 4.47715 15.5228 0 10 0C4.47715 0 0 4.47715 0 10C0 15.5228 4.47715 20 10 20Z" fill="#F0F0F0"/>
<path d="M19.378 6.52174H8.69566V3.91302H3.47824V6.52174H0.621992C0.220039 7.60502 0 8.77677 0 9.99998C0 11.2232 0.220039 12.3949 0.621992 13.4782L10 14.3478L19.378 13.4782C19.78 12.3949 20 11.2232 20 9.99998C20 8.77677 19.78 7.60502 19.378 6.52174Z" fill="#0052B4"/>
<path d="M10.0001 20C14.2997 20 17.9652 17.2863 19.3781 13.4783H0.62207C2.035 17.2863 5.70043 20 10.0001 20Z" fill="#D80027"/>
<path d="M3.47803 6.52174V7.39127C3.47803 9.38819 6.08674 10 6.08674 10C6.08674 10 8.69545 9.38819 8.69545 7.39127V6.52174L7.82588 7.39131L6.08674 6.08698L4.3476 7.39131L3.47803 6.52174Z" fill="#F0F0F0"/>
</g>
<defs>
<clipPath id="clip0_1_1485">
<rect width="20" height="20" fill="white"/>
</clipPath>
</defs>
</svg>
