<svg width="20" height="20" viewBox="0 0 20 20" fill="none" xmlns="http://www.w3.org/2000/svg">
<g clip-path="url(#clip0_1_1477)">
<path d="M10 20C15.5228 20 20 15.5228 20 10C20 4.47715 15.5228 0 10 0C4.47715 0 0 4.47715 0 10C0 15.5228 4.47715 20 10 20Z" fill="#F0F0F0"/>
<path d="M10 20C15.5228 20 20 15.5228 20 9.99997C20 8.77677 19.78 7.60501 19.378 6.52173H0.621992C0.220039 7.60501 0 8.77677 0 9.99997C0 15.5228 4.47719 20 10 20Z" fill="#0052B4"/>
<path d="M10.0001 20C14.2997 20 17.9652 17.2863 19.3781 13.4783H0.62207C2.035 17.2863 5.70043 20 10.0001 20Z" fill="#D80027"/>
<path d="M2.58594 5.65216V10.6407C2.58594 13.4783 6.29301 14.3478 6.29301 14.3478C6.29301 14.3478 10 13.4783 10 10.6407V5.65216H2.58594Z" fill="#F0F0F0"/>
<path d="M3.45557 5.65216V10.6407C3.45557 10.9738 3.52955 11.2884 3.67611 11.5834H8.90998C9.05654 11.2884 9.13053 10.9738 9.13053 10.6407V5.65216H3.45557Z" fill="#D80027"/>
<path d="M8.03195 9.1304H6.72766V8.26083H7.59723V7.39126H6.72766V6.52173H5.85809V7.39126H4.98855V8.26083H5.85809V9.1304H4.55371V9.99997H5.85809V10.8695H6.72766V9.99997H8.03195V9.1304Z" fill="#F0F0F0"/>
<path d="M4.86232 12.7973C5.42268 13.1494 5.99838 13.3539 6.29311 13.4448C6.58783 13.3539 7.16354 13.1494 7.72389 12.7973C8.28896 12.4421 8.6851 12.0359 8.91002 11.5834C8.66193 11.4079 8.35924 11.3044 8.03225 11.3044C7.91318 11.3044 7.79752 11.3185 7.68631 11.3444C7.45064 10.8089 6.91568 10.4348 6.29314 10.4348C5.67061 10.4348 5.13561 10.8089 4.89998 11.3444C4.78877 11.3185 4.67307 11.3044 4.55404 11.3044C4.22705 11.3044 3.92436 11.4079 3.67627 11.5834C3.90107 12.0359 4.29721 12.4421 4.86232 12.7973Z" fill="#0052B4"/>
</g>
<defs>
<clipPath id="clip0_1_1477">
<rect width="20" height="20" fill="white"/>
</clipPath>
</defs>
</svg>
