<svg width="20" height="20" viewBox="0 0 20 20" fill="none" xmlns="http://www.w3.org/2000/svg">
<g clip-path="url(#clip0_1_1505)">
<path d="M0.992266 5.65216C0.356562 6.96685 0 8.44177 0 9.99998C0 11.5582 0.356562 13.0331 0.992266 14.3478L10 15.2174L19.0077 14.3478C19.6434 13.0331 20 11.5582 20 9.99998C20 8.44177 19.6434 6.96685 19.0077 5.65216L10 4.78259L0.992266 5.65216Z" fill="#F0F0F0"/>
<path d="M0.992676 14.3478C2.61014 17.6928 6.03549 20 10.0001 20C13.9646 20 17.39 17.6928 19.0074 14.3478H0.992676Z" fill="#6DA544"/>
<path d="M0.992676 5.65219H19.0074C17.39 2.30727 13.9646 0 10.0001 0C6.03549 0 2.61014 2.30727 0.992676 5.65219Z" fill="#D80027"/>
<path d="M8.26074 12.6088H11.739V11.1305L11.0434 11.4783L9.99988 10.4348L8.95641 11.4783L8.26074 11.1305V12.6088Z" fill="#FFDA44"/>
<path d="M6.2707 10.8696L6.43262 11.3678H6.95645L6.53262 11.6757L6.69453 12.1739L6.2707 11.866L5.84688 12.1739L6.00879 11.6757L5.58496 11.3678H6.10879L6.2707 10.8696Z" fill="#FFDA44"/>
<path d="M6.77266 9.13043L6.93457 9.62864H7.4584L7.03457 9.93657L7.19644 10.4348L6.77266 10.1269L6.34883 10.4348L6.51074 9.93657L6.08691 9.62864H6.61074L6.77266 9.13043Z" fill="#FFDA44"/>
<path d="M8.20723 7.82611L8.36914 8.32431H8.89293L8.46918 8.63224L8.63102 9.13045L8.20723 8.82256L7.78344 9.13045L7.94531 8.63224L7.52148 8.32431H8.04535L8.20723 7.82611Z" fill="#FFDA44"/>
<path d="M13.7292 10.8696L13.5673 11.3678H13.0435L13.4673 11.6757L13.3054 12.1739L13.7292 11.866L14.153 12.1739L13.9911 11.6757L14.4149 11.3678H13.8911L13.7292 10.8696Z" fill="#FFDA44"/>
<path d="M13.2272 9.13043L13.0653 9.62864H12.5415L12.9653 9.93657L12.8034 10.4348L13.2272 10.1269L13.6511 10.4348L13.4892 9.93657L13.913 9.62864H13.3892L13.2272 9.13043Z" fill="#FFDA44"/>
<path d="M11.7921 7.82611L11.6302 8.32431H11.1064L11.5302 8.63224L11.3683 9.13045L11.7921 8.82256L12.2159 9.13045L12.0541 8.63224L12.4779 8.32431H11.954L11.7921 7.82611Z" fill="#FFDA44"/>
<path d="M9.99971 7.17389L10.1616 7.67209H10.6854L10.2616 7.98002L10.4235 8.47823L9.99971 8.17033L9.57588 8.47823L9.73779 7.98002L9.31396 7.67209H9.83779L9.99971 7.17389Z" fill="#FFDA44"/>
</g>
<defs>
<clipPath id="clip0_1_1505">
<rect width="20" height="20" fill="white"/>
</clipPath>
</defs>
</svg>
