<svg width="50" height="50" viewBox="0 0 50 50" fill="none" xmlns="http://www.w3.org/2000/svg">
<path d="M35.6904 17.6266L35.0044 21.0625C34.7404 22.3844 33.3794 23.5 32.0326 23.5H28.9076C28.4169 23.5 27.9013 23.0766 27.8044 22.5953L27.3498 20.3188C27.2654 19.8969 26.856 19.6203 26.431 19.7063C26.0076 19.7906 25.7341 20.2016 25.8185 20.6266L26.2732 22.9031C26.5154 24.1141 27.6732 25.0625 28.9091 25.0625H32.0341C34.1466 25.0625 36.1232 23.4406 36.5388 21.3719L37.2873 17.6281L35.6904 17.6266Z" fill="#36ACF2"/>
<path d="M23.1908 17.6266L22.197 22.5953C22.1001 23.0781 21.5845 23.5 21.0939 23.5H17.9689C16.622 23.5 15.2611 22.3844 14.997 21.0625L14.8298 20.2297C14.7439 19.8078 14.3283 19.5297 13.9095 19.6188C13.4861 19.7031 13.2126 20.1141 13.297 20.5375V20.5391L13.4642 21.3703C13.8783 23.4391 15.8564 25.0609 17.9673 25.0609H21.0923C22.3283 25.0609 23.4845 24.1141 23.7283 22.9016L24.783 17.625H23.1908V17.6266Z" fill="#36ACF2"/>
<path d="M26.5623 45.0594C26.2827 45.0594 26.0139 44.9094 25.8733 44.6469C25.6702 44.2672 25.8123 43.7922 26.1936 43.5891L41.0608 35.6234L38.4139 31.6516C38.1827 31.3016 38.2655 30.8328 38.6045 30.5859L46.1827 25.075C44.553 24.2688 41.3311 22.8656 38.2623 22.6531C37.8327 22.6219 37.5092 22.2484 37.5373 21.8188C37.5686 21.3891 37.917 21.0797 38.3717 21.0938C43.0639 21.4203 47.8483 24.175 48.0498 24.2938C48.278 24.425 48.4233 24.6641 48.4373 24.9281C48.4514 25.1906 48.3311 25.4438 48.117 25.6L40.1311 31.4094L42.8389 35.4734C42.9608 35.6563 43.0014 35.8828 42.9467 36.0953C42.892 36.3078 42.7514 36.4906 42.5577 36.5938L26.9327 44.9641C26.8139 45.0297 26.6873 45.0594 26.5623 45.0594Z" fill="#36ACF2"/>
<path d="M27.4015 41.9531C27.1952 41.9531 26.9905 41.8719 26.8374 41.7125C26.539 41.4 26.5499 40.9047 26.8624 40.6078C28.0327 39.4891 29.3187 38.2359 30.6983 36.8578C33.4499 34.1063 35.1093 29.1984 35.5093 26.75C35.5796 26.3234 35.9874 26.0328 36.4062 26.1031C36.8312 26.1734 37.1202 26.575 37.0499 27C36.7405 28.9 35.1937 34.5719 31.803 37.9625C30.414 39.3516 29.1187 40.6125 27.9421 41.7375C27.7905 41.8813 27.5952 41.9531 27.4015 41.9531Z" fill="#36ACF2"/>
<path d="M29.6874 48.4984C29.5624 48.4984 29.4358 48.4672 29.3187 48.4047L7.44366 36.6859C7.24991 36.5828 7.10928 36.4 7.0546 36.1875C6.99991 35.975 7.04054 35.7484 7.16241 35.5656L9.87179 31.5016L1.88428 25.6922C1.67022 25.5359 1.54991 25.2828 1.56241 25.0203C1.57647 24.7563 1.72178 24.5172 1.94991 24.3859C2.15147 24.2672 6.93585 21.5125 11.6296 21.1859C12.0437 21.1563 12.4327 21.4797 12.464 21.9109C12.4937 22.3406 12.1687 22.7156 11.739 22.7453C8.67178 22.9578 5.44991 24.3609 3.81866 25.1672L11.3968 30.6781C11.7358 30.9234 11.8202 31.3938 11.5874 31.7438L8.93897 35.7156L24.3062 43.9484C22.6062 42.3672 20.5312 40.3875 18.1968 38.0531C14.8562 34.7125 13.2765 29.0125 12.9499 27.0969C12.8765 26.6719 13.1624 26.2688 13.589 26.1969C14.0187 26.1266 14.4187 26.4109 14.4905 26.8344C14.7749 28.4938 16.2655 33.9109 19.303 36.9484C25.7171 43.3625 30.1452 47.0813 30.1905 47.1188C30.4968 47.3766 30.5593 47.8234 30.3358 48.1562C30.1843 48.3766 29.939 48.4984 29.6874 48.4984Z" fill="#36ACF2"/>
<path d="M34.7281 9.83125C34.8156 10.3578 34.8937 10.8797 34.9578 11.3938C42.5094 12.0344 46.6187 13.3125 46.8766 14.1031C46.5219 15.2344 38.9062 17.25 25 17.25C11.0922 17.25 3.47812 15.2344 3.12344 14.1453C3.23594 13.7875 5.07344 12.5781 11.8094 11.7375C12.2375 11.6828 12.5406 11.2922 12.4875 10.8641C12.4328 10.4375 12.0406 10.1391 11.6156 10.1875C1.5625 11.4422 1.5625 13.4609 1.5625 14.125C1.5625 18.7594 24.0438 18.8125 25 18.8125C25.9562 18.8125 48.4375 18.7594 48.4375 14.125C48.4375 11.4906 41.1734 10.3375 34.7281 9.83125Z" fill="#36ACF2"/>
<path d="M25 15.6875C17.1516 15.6875 14.6969 14.8984 14.5969 14.8656C14.2781 14.7594 14.0625 14.4625 14.0625 14.125C14.0625 11.0469 15.0109 6.75 15.8078 3.6875C16.2375 2.0375 18.0422 1.12813 19.6531 1.76875L25 3.90938L30.3469 1.77031C31.9531 1.12656 33.7625 2.0375 34.1922 3.69063C34.8437 6.19063 35.9375 10.8734 35.9375 14.125C35.9375 14.4625 35.7219 14.7594 35.4031 14.8656C35.3031 14.8984 32.8484 15.6875 25 15.6875ZM15.6375 13.5109C16.7031 13.7234 19.4547 14.125 25 14.125C30.5422 14.125 33.2938 13.7234 34.3625 13.5094C34.2391 10.4703 33.2719 6.35313 32.6797 4.08125C32.4781 3.31094 31.6844 2.91719 30.9266 3.22031L25.2906 5.47344C25.1047 5.55 24.8969 5.55 24.7109 5.47344L19.075 3.22031C18.3172 2.91719 17.5219 3.31406 17.3219 4.08125C16.7281 6.35781 15.7609 10.4781 15.6375 13.5109Z" fill="#36ACF2"/>
</svg>
