<svg width="62" height="62" viewBox="0 0 62 62" fill="none" xmlns="http://www.w3.org/2000/svg">
<g clip-path="url(#clip0_1_1373)">
<path d="M11.192 62H50.809C51.4973 61.9993 52.1736 61.8191 52.771 61.4772C53.3684 61.1353 53.8663 60.6434 54.2155 60.0502C54.5648 59.4571 54.7532 58.7831 54.7624 58.0948C54.7715 57.4065 54.6009 56.7277 54.2675 56.1255L52.5202 52.9397C51.963 51.9264 51.6691 50.7895 51.6656 49.6331V35.1509C51.6666 23.1053 43.8515 18.7033 39.773 17.2257C40.0184 16.8621 40.1833 16.4502 40.2566 16.0178C40.33 15.5853 40.3102 15.1421 40.1985 14.7179C40.0867 14.2937 39.8857 13.8983 39.6088 13.5581C39.3319 13.2178 38.9856 12.9407 38.5929 12.7451C40.5485 10.8356 41.8456 8.35329 42.2964 5.6575C42.3602 5.08293 42.3037 4.50136 42.1305 3.94981C41.9573 3.39826 41.6712 2.8888 41.2904 2.45384C40.9096 2.01889 40.4424 1.66797 39.9186 1.42341C39.3947 1.17885 38.8257 1.046 38.2478 1.03333C37.4117 1.02808 36.5826 1.18457 35.806 1.4942C34.3926 0.521094 32.717 7.24792e-05 31.001 7.24792e-05C29.285 7.24792e-05 27.6094 0.521094 26.196 1.4942C25.3895 1.17818 24.5294 1.02167 23.6633 1.03333C23.0927 1.05734 22.5332 1.19861 22.0196 1.44832C21.506 1.69802 21.0493 2.05083 20.678 2.48474C20.3067 2.91866 20.0288 3.42439 19.8615 3.97043C19.6942 4.51646 19.6411 5.0911 19.7056 5.65853C20.1567 8.35415 21.4542 10.8362 23.4101 12.7451C23.0174 12.9407 22.6709 13.2179 22.3939 13.5582C22.1169 13.8984 21.9157 14.294 21.8039 14.7182C21.6921 15.1425 21.6722 15.5858 21.7455 16.0184C21.8188 16.451 21.9837 16.8629 22.229 17.2267C18.1484 18.7033 10.3333 23.1053 10.3333 35.1509V49.63C10.3301 50.7863 10.0366 51.9233 9.47976 52.9366L7.73549 56.1214C7.40085 56.7235 7.22923 57.4026 7.2376 58.0914C7.24596 58.7803 7.43403 59.455 7.7832 60.0488C8.13236 60.6426 8.63052 61.135 9.22838 61.4772C9.82625 61.8195 10.5031 61.9997 11.192 62ZM24.8 16.5333C24.5259 16.5333 24.2631 16.4245 24.0693 16.2307C23.8755 16.0369 23.7666 15.7741 23.7666 15.5C23.7666 15.2259 23.8755 14.9631 24.0693 14.7693C24.2631 14.5755 24.5259 14.4667 24.8 14.4667H37.2C37.474 14.4667 37.7368 14.5755 37.9306 14.7693C38.1244 14.9631 38.2333 15.2259 38.2333 15.5C38.2333 15.7741 38.1244 16.0369 37.9306 16.2307C37.7368 16.4245 37.474 16.5333 37.2 16.5333H24.8ZM21.7568 5.4219C21.7225 5.13603 21.7481 4.84615 21.8319 4.5707C21.9157 4.29525 22.0559 4.04024 22.2436 3.82188C22.4312 3.60352 22.6622 3.42658 22.9219 3.3023C23.1817 3.17802 23.4644 3.10913 23.7522 3.1C24.4734 3.08601 25.1858 3.26054 25.8188 3.60633C26.0145 3.71548 26.2402 3.75873 26.4624 3.7297C26.6846 3.70067 26.8915 3.6009 27.0526 3.44513C28.1729 2.55428 29.5619 2.0693 30.9932 2.0693C32.4245 2.0693 33.8136 2.55428 34.9339 3.44513C35.0939 3.60463 35.3019 3.70726 35.5258 3.7373C35.7498 3.76735 35.9774 3.72316 36.1739 3.6115C36.8262 3.25622 37.561 3.07975 38.3036 3.1C38.5866 3.11627 38.8634 3.19042 39.1166 3.31786C39.3699 3.44529 39.5944 3.62331 39.7762 3.84092C39.9579 4.05853 40.0932 4.31109 40.1735 4.58302C40.2538 4.85494 40.2775 5.14045 40.2431 5.4219C39.7471 8.23998 38.1579 10.748 35.8215 12.4H26.1784C23.8421 10.748 22.2529 8.23998 21.7568 5.4219ZM9.54589 57.1185L11.2922 53.9328C12.0157 52.6138 12.3965 51.1343 12.4 49.63V35.1509C12.4 21.1596 23.7563 18.7994 24.8857 18.6H37.1142C38.2436 18.7994 49.6 21.1596 49.6 35.1509V49.63C49.6031 51.1345 49.9844 52.6141 50.7087 53.9328L52.4592 57.1237C52.6191 57.4114 52.7011 57.7358 52.6972 58.0648C52.6933 58.3939 52.6035 58.7163 52.4369 59C52.2702 59.2838 52.0324 59.5192 51.7468 59.6829C51.4613 59.8465 51.1381 59.9329 50.809 59.9333H11.192C10.8624 59.933 10.5386 59.8464 10.2528 59.6822C9.96696 59.5181 9.72904 59.282 9.56265 58.9975C9.39625 58.7129 9.30717 58.3898 9.30423 58.0602C9.30129 57.7306 9.3846 57.406 9.54589 57.1185Z" fill="#36ACF2"/>
<path d="M18.2735 30.9473C18.4022 30.9902 18.5382 31.0073 18.6736 30.9977C18.809 30.988 18.9412 30.9518 19.0626 30.8911C19.1839 30.8303 19.2922 30.7463 19.3811 30.6437C19.47 30.5411 19.5378 30.422 19.5806 30.2932C21.4169 24.7845 24.8951 23.7832 25.0573 23.7336C25.3189 23.6624 25.542 23.4913 25.6785 23.2571C25.8151 23.023 25.8542 22.7445 25.7874 22.4818C25.7205 22.2191 25.5531 21.9931 25.3213 21.8527C25.0894 21.7123 24.8116 21.6685 24.5479 21.731C24.3567 21.7785 19.839 22.9782 17.6183 29.6401C17.5754 29.769 17.5584 29.905 17.5681 30.0405C17.5778 30.1759 17.6141 30.3081 17.675 30.4295C17.7358 30.5509 17.82 30.6591 17.9227 30.748C18.0254 30.8368 18.1446 30.9046 18.2735 30.9473Z" fill="#36ACF2"/>
<path d="M36.9406 23.7336C37.0884 23.7729 40.579 24.7669 42.4173 30.2932C42.4602 30.4221 42.528 30.5413 42.617 30.644C42.7059 30.7467 42.8142 30.8309 42.9357 30.8917C43.0572 30.9525 43.1894 30.9889 43.325 30.9986C43.4605 31.0083 43.5966 30.9912 43.7255 30.9483C43.8544 30.9055 43.9736 30.8376 44.0763 30.7486C44.179 30.6597 44.2631 30.5514 44.324 30.4299C44.3848 30.3084 44.4211 30.1762 44.4308 30.0407C44.4406 29.9051 44.4235 29.769 44.3806 29.6401C42.161 22.9782 37.6433 21.7785 37.4511 21.731C37.1873 21.6685 36.9095 21.7123 36.6777 21.8527C36.4458 21.9931 36.2784 22.2191 36.2116 22.4818C36.1448 22.7445 36.1838 23.023 36.3204 23.2571C36.457 23.4913 36.6791 23.6624 36.9406 23.7336Z" fill="#36ACF2"/>
<path d="M31.0001 34.1C31.2742 34.1 31.537 33.9911 31.7308 33.7973C31.9246 33.6036 32.0335 33.3407 32.0335 33.0667V23.7667C32.0335 23.4926 31.9246 23.2298 31.7308 23.036C31.537 22.8422 31.2742 22.7333 31.0001 22.7333C30.7261 22.7333 30.4632 22.8422 30.2695 23.036C30.0757 23.2298 29.9668 23.4926 29.9668 23.7667V33.0667C29.9668 33.3407 30.0757 33.6036 30.2695 33.7973C30.4632 33.9911 30.7261 34.1 31.0001 34.1Z" fill="#36ACF2"/>
<path fill-rule="evenodd" clip-rule="evenodd" d="M20.2182 45.8841C21.0864 41.0804 25.2954 37.4349 30.3485 37.4349C35.4182 37.4349 39.6381 41.1043 40.4872 45.9313C40.1785 45.7845 39.8375 45.6272 39.4642 45.4625C39.3513 45.4127 39.2263 45.3747 39.0987 45.3709C38.969 45.3672 38.8042 45.3997 38.6744 45.5298C38.5449 45.6595 38.5125 45.824 38.5161 45.9528C38.5195 46.0799 38.5569 46.2046 38.606 46.3172C39.2296 47.747 39.7224 48.6721 40.012 49.2034C40.0892 49.3451 40.1876 49.4777 40.3065 49.5966L40.3066 49.5967C40.3546 49.6448 40.4048 49.6893 40.4568 49.7305C39.532 54.4675 35.3543 58.0451 30.3485 58.0451C25.3429 58.0451 21.1653 54.4678 20.2389 49.7316C20.2914 49.6901 20.342 49.6452 20.3905 49.5967C20.5061 49.4811 20.6022 49.3525 20.6784 49.2155C20.9989 48.7102 21.5445 47.7899 22.0958 46.3063C22.1426 46.1964 22.1772 46.0751 22.1793 45.9512C22.1815 45.8208 22.1463 45.6591 22.0185 45.5318C21.8907 45.4046 21.7288 45.3701 21.5985 45.3728C21.4745 45.3754 21.3532 45.4106 21.2434 45.458C20.8675 45.6001 20.5263 45.744 20.2182 45.8841ZM19.3649 46.3016C20.064 40.8604 24.7187 36.6551 30.3485 36.6551C35.9943 36.6551 40.6596 40.8844 41.338 46.3482C41.56 46.46 41.755 46.5603 41.9229 46.6467H41.923C42.067 46.7209 42.1912 46.7847 42.2956 46.8369C42.4576 46.9178 42.6091 47.0257 42.7434 47.16C43.4159 47.8326 43.4159 48.9242 42.7434 49.5967C42.32 50.0201 41.7304 50.177 41.1839 50.0672C40.1167 55.0703 35.6681 58.8249 30.3485 58.8249C25.0288 58.8249 20.5802 55.0702 19.5117 50.0676C18.9655 50.1767 18.3767 50.0197 17.9536 49.5967C17.2811 48.9241 17.2811 47.8325 17.9536 47.16C18.0728 47.0408 18.2224 46.937 18.3846 46.8459C18.4412 46.814 18.5032 46.7786 18.5707 46.7401C18.7811 46.62 19.0448 46.4694 19.3649 46.3016ZM31.8843 45.1299C31.8843 43.6587 33.079 42.4641 34.5501 42.4641C36.0213 42.4641 37.2159 43.6587 37.2159 45.1299C37.2159 45.3453 37.3905 45.5198 37.6058 45.5198C37.8212 45.5198 37.9957 45.3453 37.9957 45.1299C37.9957 43.228 36.452 41.6843 34.5501 41.6843C32.6483 41.6843 31.1045 43.228 31.1045 45.1299C31.1045 45.3453 31.2791 45.5198 31.4944 45.5198C31.7097 45.5198 31.8843 45.3453 31.8843 45.1299ZM38.3777 47.7369C38.3777 47.6334 38.3366 47.5342 38.2633 47.461C38.1901 47.3879 38.0909 47.3468 37.9874 47.347L22.7088 47.3629C22.6054 47.3631 22.5062 47.4043 22.4332 47.4775C22.3601 47.5508 22.3191 47.6501 22.3193 47.7535C22.3267 52.1789 25.9214 55.7692 30.3485 55.7692C34.7801 55.7692 38.3777 52.1716 38.3777 47.74V47.7369ZM24.8011 52.4048C23.82 51.2395 23.1989 49.7613 23.1101 48.1424L37.5877 48.1272C37.5019 49.7526 36.8798 51.2368 35.8951 52.4058C34.7342 51.1794 32.6537 50.4058 30.3485 50.4058C28.0428 50.4058 25.9631 51.1796 24.8011 52.4048ZM25.3357 52.9749C26.6381 54.2225 28.4045 54.9894 30.3485 54.9894C32.2921 54.9894 34.058 54.2228 35.3603 52.9758C34.4012 51.9371 32.5459 51.1856 30.3485 51.1856C28.1523 51.1856 26.2967 51.9365 25.3357 52.9749ZM26.1469 42.4641C24.6758 42.4641 23.4811 43.6587 23.4811 45.1299C23.4811 45.3453 23.3065 45.5198 23.0912 45.5198C22.8758 45.5198 22.7013 45.3453 22.7013 45.1299C22.7013 43.228 24.2451 41.6843 26.1469 41.6843C28.0487 41.6843 29.5925 43.228 29.5925 45.1299C29.5925 45.3453 29.418 45.5198 29.2026 45.5198C28.9873 45.5198 28.8127 45.3453 28.8127 45.1299C28.8127 43.6587 27.618 42.4641 26.1469 42.4641ZM20.0135 48.8077C20.2941 48.366 20.7722 47.5671 21.2701 46.2839C20.1986 46.709 19.4502 47.1361 18.9571 47.4175L18.957 47.4176L18.956 47.4181L18.9558 47.4183C18.888 47.4569 18.8251 47.4928 18.7668 47.5256C18.6416 47.596 18.5571 47.6594 18.505 47.7114C18.1371 48.0793 18.1371 48.6773 18.505 49.0453C18.7956 49.3359 19.2297 49.397 19.5806 49.2286L20.0135 48.8077ZM40.6967 48.8301C40.4354 48.3508 40.0038 47.5417 39.4564 46.313C40.377 46.7286 41.0689 47.0845 41.5573 47.3357C41.7058 47.4121 41.8355 47.4788 41.947 47.5345C42.035 47.5785 42.1178 47.6372 42.1919 47.7113L42.1919 47.7114C42.5599 48.0793 42.5599 48.6773 42.1919 49.0453C41.824 49.4132 41.2261 49.4133 40.858 49.0453L40.858 49.0452C40.7921 48.9794 40.7385 48.9068 40.6967 48.8301Z" fill="#36ACF2"/>
</g>
<defs>
<clipPath id="clip0_1_1373">
<rect width="62" height="62" fill="white"/>
</clipPath>
</defs>
</svg>
