<svg width="46" height="46" viewBox="0 0 46 46" fill="none" xmlns="http://www.w3.org/2000/svg">
<g clip-path="url(#clip0_1_1383)">
<path d="M23 4.37162C22.7617 4.37162 22.5332 4.27696 22.3647 4.10847C22.1962 3.93998 22.1016 3.71146 22.1016 3.47318V0.898438C22.1016 0.660157 22.1962 0.431636 22.3647 0.263146C22.5332 0.0946565 22.7617 0 23 0C23.2383 0 23.4668 0.0946565 23.6353 0.263146C23.8038 0.431636 23.8984 0.660157 23.8984 0.898438V3.47318C23.8984 3.71146 23.8038 3.93998 23.6353 4.10847C23.4668 4.27696 23.2383 4.37162 23 4.37162Z" fill="#36ACF2"/>
<path d="M13.2375 6.98787C13.0797 6.98802 12.9246 6.94658 12.7878 6.86772C12.6511 6.78886 12.5375 6.67536 12.4586 6.53865L11.1711 4.30873C11.0539 4.10249 11.0229 3.85823 11.0851 3.62927C11.1473 3.40031 11.2975 3.20523 11.5029 3.08661C11.7084 2.96798 11.9524 2.93544 12.1818 2.99608C12.4112 3.05672 12.6072 3.20562 12.7272 3.41029L14.0156 5.64003C14.0944 5.77655 14.1359 5.93139 14.1359 6.08902C14.136 6.24665 14.0946 6.40152 14.0158 6.53807C13.9371 6.67463 13.8238 6.78806 13.6873 6.86698C13.5509 6.9459 13.3961 6.98753 13.2384 6.98769L13.2375 6.98787Z" fill="#36ACF2"/>
<path d="M6.08868 14.1353C5.93093 14.1354 5.77597 14.0938 5.63946 14.0147L3.41043 12.7273C3.30743 12.6687 3.21703 12.5903 3.14444 12.4967C3.07184 12.4031 3.01849 12.296 2.98744 12.1816C2.9564 12.0673 2.94828 11.9479 2.96355 11.8304C2.97882 11.7129 3.01718 11.5996 3.07643 11.497C3.13567 11.3944 3.21463 11.3045 3.30875 11.2326C3.40287 11.1606 3.5103 11.1079 3.62485 11.0776C3.7394 11.0474 3.85881 11.04 3.9762 11.0561C4.0936 11.0721 4.20666 11.1113 4.30887 11.1712L6.53879 12.4585C6.71031 12.5573 6.84437 12.71 6.92016 12.8929C6.99594 13.0758 7.0092 13.2786 6.95788 13.4698C6.90656 13.661 6.79353 13.8299 6.63635 13.9502C6.47917 14.0706 6.28664 14.1356 6.08868 14.1353Z" fill="#36ACF2"/>
<path d="M3.47318 23.8984H0.898438C0.660157 23.8984 0.431636 23.8038 0.263146 23.6353C0.0946565 23.4668 0 23.2383 0 23C0 22.7617 0.0946565 22.5332 0.263146 22.3647C0.431636 22.1962 0.660157 22.1016 0.898438 22.1016H3.47318C3.71146 22.1016 3.93998 22.1962 4.10847 22.3647C4.27696 22.5332 4.37162 22.7617 4.37162 23C4.37162 23.2383 4.27696 23.4668 4.10847 23.6353C3.93998 23.8038 3.71146 23.8984 3.47318 23.8984Z" fill="#36ACF2"/>
<path d="M3.86014 34.9492C3.66231 34.9493 3.46999 34.884 3.31303 34.7636C3.15607 34.6432 3.04323 34.4744 2.99203 34.2833C2.94084 34.0922 2.95414 33.8896 3.02988 33.7068C3.10562 33.5241 3.23956 33.3714 3.41092 33.2726L5.64084 31.9851C5.84708 31.8678 6.09134 31.8369 6.3203 31.8991C6.54926 31.9612 6.74433 32.1114 6.86296 32.3169C6.98159 32.5223 7.01413 32.7664 6.95349 32.9958C6.89285 33.2251 6.74395 33.4212 6.53928 33.5412L4.30935 34.8286C4.17287 34.9077 4.01789 34.9493 3.86014 34.9492Z" fill="#36ACF2"/>
<path d="M11.9493 43.0391C11.7916 43.039 11.6368 42.9973 11.5004 42.9184C11.3639 42.8395 11.2506 42.726 11.1719 42.5895C11.0931 42.4529 11.0517 42.2981 11.0518 42.1404C11.0518 41.9828 11.0933 41.828 11.1721 41.6915L12.4594 39.4615C12.518 39.3585 12.5963 39.2681 12.69 39.1955C12.7836 39.1229 12.8907 39.0696 13.005 39.0385C13.1194 39.0075 13.2387 38.9994 13.3562 39.0147C13.4737 39.0299 13.5871 39.0683 13.6897 39.1275C13.7923 39.1868 13.8822 39.2657 13.9541 39.3599C14.0261 39.454 14.0787 39.5614 14.109 39.676C14.1393 39.7905 14.1466 39.9099 14.1306 40.0273C14.1145 40.1447 14.0754 40.2578 14.0155 40.36L12.7282 42.5899C12.6493 42.7266 12.5357 42.8401 12.399 42.919C12.2622 42.9978 12.1071 43.0393 11.9493 43.0391Z" fill="#36ACF2"/>
<path d="M23 46C22.7617 46 22.5332 45.9053 22.3647 45.7369C22.1962 45.5684 22.1016 45.3398 22.1016 45.1016V42.5268C22.1016 42.2885 22.1962 42.06 22.3647 41.8915C22.5332 41.723 22.7617 41.6284 23 41.6284C23.2383 41.6284 23.4668 41.723 23.6353 41.8915C23.8038 42.06 23.8984 42.2885 23.8984 42.5268V45.1016C23.8984 45.3398 23.8038 45.5684 23.6353 45.7369C23.4668 45.9053 23.2383 46 23 46Z" fill="#36ACF2"/>
<path d="M34.0515 43.0391C33.8936 43.0393 33.7385 42.9978 33.6018 42.919C33.465 42.8401 33.3515 42.7266 33.2725 42.5899L31.9851 40.36C31.8678 40.1537 31.8369 39.9095 31.8991 39.6805C31.9612 39.4516 32.1114 39.2565 32.3169 39.1378C32.5223 39.0192 32.7664 38.9867 32.9958 39.0473C33.2251 39.108 33.4212 39.2569 33.5412 39.4615L34.8286 41.6915C34.9075 41.828 34.949 41.9828 34.949 42.1404C34.9491 42.2981 34.9076 42.4529 34.8289 42.5895C34.7501 42.726 34.6368 42.8395 34.5004 42.9184C34.3639 42.9973 34.2091 43.0389 34.0515 43.0391Z" fill="#36ACF2"/>
<path d="M42.1398 34.9492C41.9821 34.9493 41.8271 34.9077 41.6906 34.8286L39.4607 33.5414C39.256 33.4214 39.1071 33.2253 39.0464 32.9959C38.9858 32.7666 39.0184 32.5225 39.137 32.3171C39.2556 32.1116 39.4507 31.9614 39.6796 31.8992C39.9086 31.8371 40.1529 31.868 40.3591 31.9853L42.589 33.2726C42.7604 33.3714 42.8943 33.5241 42.9701 33.7068C43.0458 33.8896 43.0591 34.0922 43.0079 34.2833C42.9567 34.4744 42.8439 34.6432 42.6869 34.7636C42.5299 34.884 42.3376 34.9493 42.1398 34.9492Z" fill="#36ACF2"/>
<path d="M45.1016 23.8984H42.5269C42.2886 23.8984 42.0601 23.8038 41.8916 23.6353C41.7231 23.4668 41.6284 23.2383 41.6284 23C41.6284 22.7617 41.7231 22.5332 41.8916 22.3647C42.0601 22.1962 42.2886 22.1016 42.5269 22.1016H45.1016C45.3399 22.1016 45.5684 22.1962 45.7369 22.3647C45.9054 22.5332 46 22.7617 46 23C46 23.2383 45.9054 23.4668 45.7369 23.6353C45.5684 23.8038 45.3399 23.8984 45.1016 23.8984Z" fill="#36ACF2"/>
<path d="M39.9116 14.1353C39.7137 14.1356 39.5212 14.0706 39.364 13.9502C39.2068 13.8299 39.0938 13.661 39.0424 13.4698C38.9911 13.2786 39.0044 13.0758 39.0802 12.8929C39.1559 12.71 39.29 12.5573 39.4615 12.4585L41.6914 11.1712C41.7937 11.1113 41.9067 11.0721 42.0241 11.0561C42.1415 11.04 42.2609 11.0474 42.3755 11.0776C42.49 11.1079 42.5974 11.1606 42.6916 11.2326C42.7857 11.3045 42.8646 11.3944 42.9239 11.497C42.9831 11.5996 43.0215 11.7129 43.0368 11.8304C43.052 11.9479 43.0439 12.0673 43.0129 12.1816C42.9818 12.296 42.9285 12.4031 42.8559 12.4967C42.7833 12.5903 42.6929 12.6687 42.5899 12.7273L40.36 14.0156C40.2236 14.0942 40.069 14.1355 39.9116 14.1353Z" fill="#36ACF2"/>
<path d="M32.7628 6.98786C32.6051 6.9877 32.4503 6.94607 32.3139 6.86715C32.1774 6.78823 32.0641 6.6748 31.9854 6.53825C31.9066 6.40169 31.8652 6.24683 31.8652 6.0892C31.8653 5.93156 31.9068 5.77672 31.9856 5.64021L33.2729 3.41046C33.3314 3.30746 33.4098 3.21706 33.5034 3.14447C33.5971 3.07187 33.7042 3.01852 33.8185 2.98747C33.9329 2.95643 34.0522 2.94831 34.1697 2.96358C34.2872 2.97885 34.4005 3.01721 34.5031 3.07646C34.6057 3.1357 34.6956 3.21466 34.7676 3.30878C34.8396 3.4029 34.8922 3.51033 34.9225 3.62488C34.9528 3.73943 34.9601 3.85884 34.9441 3.97623C34.928 4.09363 34.8889 4.20669 34.829 4.3089L33.5417 6.53864C33.4628 6.67535 33.3492 6.78885 33.2125 6.86771C33.0757 6.94658 32.9206 6.98802 32.7628 6.98786Z" fill="#36ACF2"/>
<path d="M29.1796 27.4668C29.0219 27.4671 28.8668 27.4255 28.7304 27.3463L22.5508 23.778C22.4142 23.6992 22.3008 23.5858 22.2219 23.4492C22.1431 23.3126 22.1016 23.1577 22.1016 23V8.25089C22.1016 8.0126 22.1962 7.78408 22.3647 7.61559C22.5332 7.4471 22.7617 7.35245 23 7.35245C23.2383 7.35245 23.4668 7.4471 23.6353 7.61559C23.8038 7.78408 23.8984 8.0126 23.8984 8.25089V22.4812L29.6305 25.7902C29.8018 25.889 29.9358 26.0417 30.0115 26.2244C30.0872 26.4072 30.1005 26.6098 30.0494 26.8009C29.9982 26.992 29.8853 27.1609 29.7284 27.2813C29.5714 27.4017 29.3791 27.4669 29.1812 27.4668H29.1796Z" fill="#36ACF2"/>
</g>
<defs>
<clipPath id="clip0_1_1383">
<rect width="46" height="46" fill="white"/>
</clipPath>
</defs>
</svg>
