<svg width="46" height="46" viewBox="0 0 46 46" fill="none" xmlns="http://www.w3.org/2000/svg">
<g clip-path="url(#clip0_1_1400)">
<path d="M46.0002 36.5527C46.0006 37.1305 45.9133 37.705 45.7414 38.2567L43.543 45.3253C43.4824 45.5209 43.3608 45.6919 43.1959 45.8133C43.031 45.9347 42.8316 46.0002 42.6268 46C42.5307 45.9999 42.4351 45.9857 42.3432 45.9578C42.223 45.9205 42.1113 45.8598 42.0146 45.7793C41.9178 45.6987 41.8379 45.5999 41.7794 45.4885C41.7208 45.3771 41.6848 45.2552 41.6733 45.1299C41.6618 45.0046 41.6752 44.8782 41.7126 44.758L43.911 37.6874C44.0717 37.1716 44.121 36.6275 44.0556 36.0912C43.9902 35.5548 43.8116 35.0385 43.5316 34.5765C43.2516 34.1144 42.8767 33.717 42.4316 33.4108C41.9865 33.1045 41.4814 32.8963 40.9498 32.7999L33.239 31.4007C33.018 31.3608 32.8181 31.2445 32.6741 31.0721C32.5301 30.8998 32.4513 30.6823 32.4513 30.4577V19.2797C32.4368 18.8601 32.26 18.4625 31.958 18.1707C31.656 17.8789 31.2525 17.7159 30.8326 17.7159C30.4127 17.7159 30.0093 17.8789 29.7073 18.1707C29.4053 18.4625 29.2284 18.8601 29.214 19.2797V39.0444C29.214 39.2338 29.1578 39.4189 29.0526 39.5764C28.9474 39.7339 28.7979 39.8567 28.623 39.9293C28.4481 40.0019 28.2556 40.0211 28.0698 39.9843C27.884 39.9476 27.7132 39.8566 27.5791 39.7229L24.0064 36.1483C23.8464 35.979 23.6541 35.8434 23.4408 35.7497C23.2276 35.656 22.9976 35.606 22.7647 35.6027C22.5318 35.5994 22.3005 35.6428 22.0847 35.7304C21.8688 35.818 21.6727 35.9481 21.508 36.1128C21.3432 36.2775 21.2132 36.4736 21.1256 36.6895C21.038 36.9053 20.9945 37.1366 20.9979 37.3695C21.0012 37.6025 21.0512 37.8324 21.1449 38.0457C21.2386 38.2589 21.3742 38.4513 21.5435 38.6112L27.2935 44.3612C27.4735 44.5409 27.5747 44.7848 27.5748 45.0391C27.575 45.2934 27.4742 45.5373 27.2945 45.7173C27.1148 45.8972 26.871 45.9984 26.6166 45.9986C26.3623 45.9988 26.1184 45.8979 25.9384 45.7182L20.1884 39.9682C19.8486 39.6284 19.5791 39.225 19.3952 38.7811C19.2113 38.3371 19.1166 37.8613 19.1166 37.3807C19.1166 36.9002 19.2113 36.4244 19.3952 35.9804C19.5791 35.5364 19.8486 35.133 20.1884 34.7932C20.5282 34.4534 20.9316 34.1839 21.3756 34C21.8195 33.8161 22.2954 33.7215 22.7759 33.7215C23.2565 33.7215 23.7323 33.8161 24.1763 34C24.6202 34.1839 25.0236 34.4534 25.3634 34.7932L27.2993 36.7291V19.2874C27.3208 18.364 27.7027 17.4857 28.3633 16.8403C29.024 16.1948 29.9109 15.8335 30.8345 15.8335C31.7582 15.8335 32.6451 16.1948 33.3058 16.8403C33.9664 17.4857 34.3483 18.364 34.3698 19.2874V29.6662L41.2948 30.9216C42.6139 31.1615 43.8072 31.8564 44.667 32.8853C45.5267 33.9141 45.9985 35.2119 46.0002 36.5527ZM26.6188 12.6653C26.4391 12.4857 26.1954 12.3847 25.9413 12.3847C25.6872 12.3847 25.4435 12.4857 25.2638 12.6653L16.2133 21.7177L11.9966 17.5011C11.9082 17.4095 11.8024 17.3365 11.6855 17.2863C11.5686 17.2361 11.4428 17.2096 11.3156 17.2085C11.1884 17.2074 11.0622 17.2317 10.9444 17.2799C10.8266 17.3281 10.7196 17.3992 10.6296 17.4892C10.5396 17.5792 10.4685 17.6862 10.4203 17.804C10.3721 17.9217 10.3479 18.0479 10.349 18.1752C10.3501 18.3024 10.3765 18.4282 10.4267 18.5451C10.477 18.662 10.55 18.7678 10.6415 18.8562L15.5443 23.7609C15.7241 23.9406 15.9678 24.0415 16.2219 24.0415C16.476 24.0415 16.7197 23.9406 16.8994 23.7609L26.6284 14.03C26.7182 13.9402 26.7892 13.8335 26.8374 13.716C26.8856 13.5985 26.9099 13.4726 26.9091 13.3457C26.9082 13.2187 26.882 13.0932 26.8322 12.9764C26.7824 12.8596 26.7099 12.7538 26.6188 12.6653ZM14.1318 33.9844C11.3896 33.2743 8.88004 31.8614 6.85062 29.8853C4.82119 27.9092 3.34207 25.4381 2.55918 22.7158C1.7763 19.9936 1.71671 17.1142 2.3863 14.3619C3.05589 11.6096 4.43152 9.07942 6.37745 7.02104C8.32338 4.96265 10.7724 3.4472 13.4828 2.6242C16.1932 1.8012 19.0713 1.6991 21.8332 2.32798C24.5951 2.95685 27.1453 4.29497 29.2322 6.21029C31.3191 8.12561 32.8706 10.552 33.7335 13.2499C33.811 13.4921 33.9816 13.6936 34.2077 13.8101C34.4338 13.9266 34.6969 13.9484 34.9391 13.8709C35.1813 13.7934 35.3828 13.6228 35.4993 13.3967C35.6157 13.1706 35.6376 12.9075 35.5601 12.6653C34.5952 9.65024 32.8609 6.93881 30.5284 4.79855C28.1958 2.65829 25.3455 1.16314 22.2587 0.460642C19.1719 -0.241861 15.9554 -0.127452 12.9263 0.792582C9.89723 1.71262 7.16037 3.40648 4.98574 5.70706C2.81111 8.00764 1.27386 10.8354 0.525645 13.9114C-0.222569 16.9875 -0.155886 20.2054 0.719115 23.2478C1.59412 26.2901 3.2472 29.0518 5.51527 31.2603C7.78334 33.4689 10.588 35.0479 13.6526 35.8417C13.7308 35.8621 13.8113 35.8724 13.8922 35.8723C14.1266 35.874 14.3535 35.7896 14.5299 35.6353C14.7063 35.4809 14.8201 35.2672 14.8496 35.0347C14.8791 34.8021 14.8223 34.5668 14.6901 34.3733C14.5578 34.1797 14.3592 34.0414 14.1318 33.9844Z" fill="#36ACF2"/>
</g>
<defs>
<clipPath id="clip0_1_1400">
<rect width="46" height="46" fill="white"/>
</clipPath>
</defs>
</svg>
