<svg width="59" height="61" viewBox="0 0 59 61" fill="none" xmlns="http://www.w3.org/2000/svg">
<path d="M46.8873 39.75C52.2721 30.4232 49.0765 18.4972 39.7498 13.1125C30.4231 7.72768 18.4971 10.9232 13.1123 20.25C7.72753 29.5767 10.9231 41.5027 20.2498 46.8875C29.5765 52.2722 41.5025 49.0767 46.8873 39.75Z" fill="#CCA827"/>
<path d="M19.3702 46.3796C11.9753 41.7193 8.05583 31.7163 12.2998 21.6572C17.2325 13.1135 28.4102 10.3183 37.2452 15.4192C46.0803 20.5202 49.2484 31.5979 44.3157 40.1416C39.3829 48.6854 28.2053 51.4806 19.3702 46.3796Z" fill="#FFD231"/>
<path d="M49.2452 22.8523C49.4956 22.9259 49.7606 22.9655 50.0347 22.9654C51.5782 22.9654 52.8314 21.7123 52.8314 20.1688C52.8314 18.6252 51.5782 17.372 50.0346 17.372C49.7256 17.372 49.4282 17.4223 49.1502 17.515C47.9696 17.8012 45.9022 18.5173 42.9482 19.6631C42.2286 19.9421 42.2277 20.3977 42.9462 20.6798C45.9634 21.8645 48.0631 22.5886 49.2452 22.8523Z" fill="#78E0FF"/>
<path d="M13.9942 43.2044C13.9328 43.4581 13.8346 43.7074 13.6975 43.9448C12.9257 45.2815 11.2139 45.7402 9.87711 44.9684C8.54036 44.1967 8.08167 42.4848 8.85344 41.148C9.00797 40.8804 9.20019 40.648 9.41954 40.4535C10.2577 39.5742 11.9115 38.1418 14.3808 36.1565C14.9822 35.6729 15.3773 35.8999 15.2623 36.6631C14.7797 39.8685 14.357 42.0489 13.9942 43.2044Z" fill="#78E0FF"/>
<path d="M42.0491 23.0756C42.05 23.0773 42.0511 23.079 42.052 23.0806C45.8914 29.7307 43.6095 38.2469 36.9594 42.0864C30.316 45.922 21.8104 43.6486 17.9654 37.014L42.0491 23.0756Z" fill="#515151"/>
<path d="M36.5503 42.1889C33.446 43.9812 29.9506 44.3486 26.0642 43.2913C26.4581 40.3713 28.9602 37.0655 32.7857 34.8569C36.6352 32.6344 40.7765 32.1278 43.4996 33.2766C42.2054 37.2906 39.8889 40.2613 36.5503 42.1889Z" fill="#FB3333"/>
<path d="M12.5451 19.8985C11.6669 21.4066 10.9718 23.0535 10.4978 24.8175C9.30159 29.2687 9.69595 33.7815 11.3454 37.7345C10.2639 38.6526 9.45612 39.3872 8.9215 39.946C8.63135 40.2717 8.38909 40.5533 8.19182 40.895C7.30663 42.5501 7.88493 44.639 9.52178 45.584C11.1587 46.5291 13.257 45.9855 14.2478 44.3912C14.4614 44.0212 14.6159 43.6094 14.7304 43.2198C17.2703 46.1895 20.7122 48.4409 24.769 49.5247C35.5289 52.3993 46.6264 45.9953 49.5159 35.2435C50.5893 31.2492 50.3817 27.2054 49.1392 23.5599C49.5195 23.6272 49.8306 23.7112 50.1762 23.6623C52.1215 23.6871 53.5426 22.0833 53.5426 20.1689C53.5425 18.2888 52.0382 16.7518 50.1759 16.6754C49.7624 16.6685 49.3018 16.7219 48.9598 16.8298C48.2452 17.0045 47.2655 17.3153 46.0227 17.7559C43.4282 14.3357 39.7088 11.729 35.2446 10.5363C26.5021 8.20076 17.5369 11.9905 12.9325 19.2608C12.7997 19.4705 12.6705 19.683 12.5451 19.8985ZM13.6592 20.8104C17.7726 13.5313 26.4262 9.65228 34.8778 11.9102C38.8803 12.9795 42.2251 15.2623 44.6186 18.2666C44.0228 18.4886 43.384 18.7317 42.6913 19.0004C42.4507 19.0937 42.2376 19.2082 42.0513 19.3869C41.9581 19.4763 41.8698 19.591 41.8046 19.7237C41.7394 19.8564 41.6974 20.0072 41.697 20.169C41.6964 20.4924 41.8625 20.7729 42.0481 20.9523C42.2336 21.1318 42.446 21.2472 42.6863 21.3415C44.663 22.1176 46.2325 22.693 47.4449 23.0811C48.9015 26.7053 49.235 30.8096 48.1426 34.8745C45.4529 44.8828 35.1527 50.8271 25.1361 48.151C20.9954 47.0449 17.5586 44.6399 15.1528 41.4798C15.4053 40.2714 15.6727 38.7131 15.9655 36.7689C16.0039 36.5137 16.0102 36.2718 15.9476 36.0214C15.8849 35.771 15.7251 35.4868 15.4446 35.3257C15.1641 35.1646 14.8383 35.1695 14.5904 35.2415C14.3425 35.3135 14.1367 35.4407 13.9356 35.6025C13.4157 36.0204 12.9403 36.408 12.4922 36.7771C11.0998 33.2049 10.7989 29.1767 11.8712 25.1866C12.2915 23.6228 12.8974 22.1583 13.6592 20.8104ZM15.753 24.4365C15.4935 24.8738 15.7635 25.4343 16.2673 25.5038L23.4944 26.6047L17.0093 31.6955C16.6926 31.9356 16.6342 32.3886 16.8795 32.7011C17.1249 33.0137 17.5789 33.0645 17.8872 32.8139L25.665 26.7085C26.1548 26.3239 25.9487 25.5402 25.3331 25.4463L16.4813 24.0984C16.192 24.0501 15.9028 24.1844 15.753 24.4365ZM9.46938 41.5034C9.60486 41.2778 9.77016 41.1028 9.93416 40.944C10.6729 40.169 12.2471 38.8041 14.4863 36.9925C14.1817 38.9296 13.7691 41.1397 13.3034 43.0371C13.2578 43.2257 13.1849 43.4109 13.082 43.5891C12.5027 44.5926 11.2362 44.932 10.2327 44.3526C9.22921 43.7732 8.89001 42.5069 9.46938 41.5034ZM17.1334 36.5875C16.9983 36.8098 16.9954 37.0881 17.1258 37.3131C21.1831 44.3137 30.1767 46.7175 37.1866 42.6704C44.2037 38.619 46.6165 29.6142 42.5653 22.5972C42.5629 22.5933 42.5606 22.5893 42.5582 22.5854L42.5569 22.5834C42.3576 22.2497 41.9272 22.1379 41.5906 22.3325L17.3847 36.3414C17.2817 36.4011 17.1952 36.4857 17.1334 36.5875ZM18.7438 37.1977L41.6559 23.9374C43.0087 26.5942 43.3848 29.5142 42.8986 32.2662C39.9207 31.3721 35.9676 32.0442 32.2806 34.173C29.7839 35.6144 27.8047 37.4955 26.5639 39.4994C25.9725 40.4546 25.5495 41.4375 25.3176 42.4141C22.7005 41.4619 20.3671 39.6845 18.7438 37.1977ZM31.5071 15.344C31.4866 15.3788 31.4694 15.4154 31.4551 15.4531L28.197 23.793C27.9707 24.3729 28.5461 24.9431 29.1239 24.7115L38.3003 21.0281C38.6711 20.8861 38.8537 20.4678 38.7058 20.0993C38.5579 19.7308 38.1368 19.5549 37.7706 19.7086L30.1192 22.78L32.7797 15.9705C32.9205 15.6248 32.7701 15.2292 32.4352 15.0643C32.1004 14.8995 31.6951 15.0216 31.5071 15.344ZM27.6324 40.5237C28.717 38.6693 30.5667 36.8044 32.9916 35.4044C36.4406 33.4131 40.121 32.902 42.5755 33.6566C41.6574 36.8254 39.5622 39.6569 36.4756 41.439C33.3881 43.2215 29.8872 43.6199 26.683 42.8295C26.854 42.0866 27.1747 41.3061 27.6324 40.5237ZM43.62 20.1724C46.3083 19.1391 48.2773 18.4583 49.3178 18.206C49.5572 18.136 49.8208 18.0843 50.0348 18.083C51.1936 18.083 52.1205 19.01 52.1206 20.1688C52.1206 21.3276 51.1935 22.2545 50.0347 22.2545C49.811 22.2387 49.5949 22.2121 49.4 22.1586C47.1417 21.5026 45.3332 20.8361 43.62 20.1724Z" fill="#2E2E2E"/>
</svg>
