<svg width="48" height="42" viewBox="0 0 48 42" fill="none" xmlns="http://www.w3.org/2000/svg">
<path d="M24 40.5C34.7696 40.5 43.5 31.7696 43.5 21C43.5 10.2304 34.7696 1.5 24 1.5C13.2304 1.5 4.5 10.2304 4.5 21C4.5 31.7696 13.2304 40.5 24 40.5Z" fill="#CCA827"/>
<path d="M4.5 19.9844C4.83851 11.25 11.5416 2.85413 22.375 1.5C32.2405 1.5 40.25 9.78252 40.25 19.9844C40.25 30.1862 32.2405 38.4688 22.375 38.4688C12.5095 38.4688 4.5 30.1862 4.5 19.9844Z" fill="#FFD231"/>
<path d="M5.81462 23.2262C5.70605 23.4254 5.56742 23.6124 5.39903 23.7809C4.45034 24.7295 2.91004 24.7295 1.96145 23.7809C1.01285 22.8323 1.01285 21.292 1.96145 20.3434C2.15137 20.1534 2.36505 20.0016 2.59286 19.8877C3.4944 19.3381 5.20495 18.5076 7.72451 17.3963C8.33825 17.1256 8.61887 17.405 8.35064 18.0199C7.22445 20.6022 6.37911 22.3377 5.81462 23.2262Z" fill="#78E0FF"/>
<path d="M42.3013 23.2262C42.4099 23.4254 42.5484 23.6124 42.7169 23.7809C43.6655 24.7295 45.2059 24.7295 46.1545 23.7809C47.1031 22.8323 47.1031 21.292 46.1545 20.3434C45.9646 20.1534 45.7509 20.0016 45.523 19.8877C44.6215 19.3381 42.911 18.5076 40.3915 17.3963C39.7777 17.1256 39.4971 17.405 39.7652 18.0199C40.8915 20.6022 41.7369 22.3377 42.3013 23.2262Z" fill="#78E0FF"/>
<path d="M37.9865 20.8927V20.8984C37.9865 28.5858 31.7453 34.827 24.0579 34.827C16.3783 34.827 10.142 28.5985 10.1294 20.9218L37.9865 20.8927Z" fill="#515151"/>
<path d="M23.6518 34.7109C20.0633 34.7109 16.849 33.2799 14.0088 30.4178C15.8119 28.0834 19.636 26.4698 24.0581 26.4698C28.508 26.4698 32.3521 28.1036 34.1379 30.4627C31.0066 33.2948 27.5112 34.7109 23.6518 34.7109Z" fill="#FB3333"/>
<path d="M24.058 0.6875C13.7868 0.6875 5.28373 8.37826 4.02746 18.3176C3.28297 18.6835 2.68787 18.9994 2.2479 19.2661C1.96323 19.4119 1.69571 19.6038 1.45872 19.8409C0.1925 21.1071 0.20613 23.0312 1.45872 24.2838C2.22688 25.052 3.30179 25.3318 4.29755 25.1303C6.24179 34.2582 14.3622 41.1094 24.058 41.1094C33.7536 41.1094 41.8736 34.2584 43.8154 25.1296C44.812 25.3324 45.8884 25.0526 46.6574 24.2836C47.8457 23.0953 47.8676 21.1724 46.7423 19.9449C46.7174 19.9076 46.689 19.8728 46.6575 19.8409L46.6573 19.8407C46.4208 19.6041 46.1537 19.4126 45.8696 19.2669C45.4295 19 44.8338 18.6838 44.0886 18.3176C42.8324 8.37829 34.3292 0.6875 24.058 0.6875ZM24.058 2.10938C33.303 2.10938 40.9859 8.78954 42.5404 17.5835C41.9764 17.324 41.3595 17.0462 40.6785 16.7458C40.4655 16.6518 40.2538 16.5874 40.012 16.5823V16.5826C39.7703 16.5775 39.4668 16.6526 39.2462 16.8723C39.0255 17.092 38.9489 17.3953 38.9529 17.6371C38.9569 17.8788 39.0207 18.0907 39.1138 18.3042C40.2345 20.8737 41.0667 22.597 41.6819 23.5734C41.908 23.9794 42.1609 24.2477 42.4905 24.5136C40.8103 33.1563 33.1975 39.6875 24.058 39.6875C14.9189 39.6875 7.30636 33.1572 5.6231 24.5156C5.95524 24.2748 6.24948 23.9061 6.43434 23.5733C7.04951 22.597 7.88167 20.8738 9.00228 18.3043C9.09539 18.0909 9.15913 17.8788 9.16319 17.637C9.16726 17.3952 9.0906 17.092 8.86993 16.8723C8.64926 16.6525 8.34584 16.5775 8.10409 16.5825C7.86233 16.5875 7.65064 16.6518 7.43758 16.7458C6.75674 17.0461 6.13995 17.3239 5.57597 17.5834C7.1307 8.78955 14.8132 2.10938 24.058 2.10938ZM16.3973 9.85717C12.9375 9.85717 10.115 12.6797 10.115 16.1394C10.1094 16.536 10.4293 16.8605 10.826 16.8605C11.2226 16.8605 11.5425 16.536 11.5369 16.1394C11.5369 13.4492 13.7071 11.279 16.3973 11.279C19.0874 11.279 21.2579 13.4492 21.2579 16.1394C21.2523 16.536 21.5722 16.8605 21.9688 16.8605C22.3654 16.8605 22.6853 16.536 22.6797 16.1394C22.6797 12.6796 19.857 9.85717 16.3973 9.85717ZM31.7188 9.85717C28.2591 9.85717 25.4364 12.6796 25.4364 16.1394C25.4308 16.536 25.7507 16.8605 26.1473 16.8605C26.5439 16.8605 26.8638 16.536 26.8582 16.1394C26.8582 13.4492 29.0287 11.279 31.7188 11.279C34.4089 11.279 36.5794 13.4492 36.5794 16.1394C36.5737 16.536 36.8937 16.8605 37.2903 16.8605C37.6869 16.8605 38.0068 16.536 38.0012 16.1394C38.0012 12.6796 35.1785 9.85717 31.7188 9.85717ZM7.43583 18.3111C6.45973 20.5141 5.68073 22.111 5.21447 22.8449C4.51166 23.8939 3.28053 24.0945 2.46419 23.2782C1.59957 22.2309 1.9956 21.0328 2.96296 20.4947C4.6325 19.5921 6.07544 18.921 7.43583 18.3111ZM40.6803 18.3111C42.4704 19.1068 44.5365 20.0248 45.6519 20.8461C46.3715 21.5657 46.1627 22.7359 45.6519 23.2782C44.9754 23.9547 43.8963 23.9547 43.2198 23.2782C43.0874 23.1369 42.9846 22.9927 42.9016 22.8449C41.9698 21.1523 41.2959 19.6966 40.6803 18.3111ZM37.9858 20.1818L10.1288 20.211C9.73608 20.2115 9.41811 20.5303 9.41868 20.923C9.43191 28.984 15.994 35.5379 24.058 35.5379C32.1302 35.5379 38.6976 28.9706 38.6976 20.8984C38.6976 20.4675 38.3996 20.2065 37.9858 20.1818ZM37.24 21.6045C37.0832 24.5674 35.9543 27.2713 34.1661 29.4016C32.0382 27.15 28.298 25.759 24.058 25.759C19.8184 25.759 16.0754 27.1475 13.9479 29.3994C12.1664 27.276 11.0399 24.5831 10.8777 21.6321L37.24 21.6045ZM24.058 27.1809C28.0229 27.1809 31.4547 28.5687 33.1926 30.4428C30.823 32.7178 27.6066 34.116 24.058 34.116C20.5087 34.116 17.2919 32.7171 14.9223 30.4412C16.666 28.5702 20.0942 27.1809 24.058 27.1809Z" fill="#2E2E2E"/>
</svg>
