<svg width="50" height="50" viewBox="0 0 50 50" fill="none" xmlns="http://www.w3.org/2000/svg">
<path d="M19.953 43.8356C30.3556 46.623 41.0482 40.4496 43.8356 30.047C46.6229 19.6445 40.4496 8.95189 30.047 6.16453C19.6444 3.37716 8.95182 9.55052 6.16445 19.9531C3.37709 30.3557 9.55045 41.0483 19.953 43.8356Z" fill="#CCA827"/>
<path d="M6.42732 18.9721C9.01491 10.6229 17.6626 4.24805 28.4773 5.74394C38.0067 8.29732 43.5996 18.3706 40.9592 28.2249C38.3187 38.0791 28.4385 44.0064 18.9091 41.453C9.37981 38.8996 3.78688 28.8263 6.42732 18.9721Z" fill="#FFD231"/>
<path d="M38.4553 28.5996L38.4539 28.6051C36.4642 36.0305 28.8203 40.4437 21.3949 38.4541C13.977 36.4665 9.56523 28.8361 11.5398 21.4178L38.4553 28.5996Z" fill="#515151"/>
<path d="M21.0326 38.2367C17.5663 37.3079 14.8319 35.0937 12.8293 31.5941C15.1751 29.8058 19.2864 29.237 23.558 30.3816C27.8562 31.5333 31.1464 34.1063 32.2608 36.8472C28.5032 38.7724 24.7605 39.2356 21.0326 38.2367Z" fill="#FB3333"/>
<path d="M30.2308 5.4778C19.457 2.59099 8.36433 8.99538 5.47752 19.7691C2.59071 30.5428 8.9951 41.6355 19.7688 44.5223C30.5425 47.4091 41.6352 41.0048 44.5221 30.231C47.4089 19.4573 41.0045 8.36461 30.2308 5.4778ZM29.8628 6.85123C39.8942 9.53915 45.8365 19.8316 43.1486 29.863C40.4607 39.8945 30.1683 45.8368 20.1368 43.1489C10.1054 40.461 4.16302 30.1686 6.85095 20.1371C9.53887 10.1056 19.8313 4.16331 29.8628 6.85123ZM20.4577 12.3523C17.1159 11.4568 13.659 13.4526 12.7635 16.7945C12.6554 17.1761 12.8805 17.5723 13.2636 17.675C13.6467 17.7776 14.0397 17.547 14.1369 17.1625C14.8332 14.564 17.4912 13.0294 20.0897 13.7257C22.6882 14.422 24.2231 17.08 23.5268 19.6785C23.4188 20.0601 23.6438 20.4564 24.0269 20.559C24.41 20.6617 24.803 20.431 24.9002 20.0465C25.7957 16.7046 23.7996 13.2477 20.4577 12.3523ZM35.2573 16.3178C31.9154 15.4223 28.4582 17.418 27.5628 20.7599C27.4547 21.1416 27.6798 21.5378 28.0629 21.6404C28.446 21.7431 28.839 21.5125 28.9362 21.128C29.6325 18.5294 32.2907 16.9949 34.8893 17.6912C37.4877 18.3875 39.0224 21.0454 38.3261 23.644C38.218 24.0256 38.4431 24.4218 38.8262 24.5245C39.2093 24.6271 39.6023 24.3965 39.6995 24.012C40.595 20.6701 38.5991 17.2132 35.2573 16.3178ZM38.6384 27.9126L11.723 20.7309C11.3435 20.6297 10.9539 20.8553 10.8528 21.2349C8.77934 29.0246 13.4216 37.0536 21.2108 39.1407C29.0079 41.2299 37.0512 36.5861 39.1404 28.789C39.2575 28.3521 38.9564 28.0079 38.6384 27.9126ZM37.5498 29.0937C36.6316 31.9148 34.8417 34.2342 32.5636 35.8291C31.0947 33.1021 27.8372 30.7924 23.7418 29.695C19.6466 28.5977 15.6718 28.9701 13.034 30.5947C11.8627 28.0825 11.4715 25.1899 12.0786 22.2974L37.5498 29.0937ZM23.3738 31.0684C27.2037 32.0947 30.1543 34.3254 31.3517 36.5839C28.4743 38.1678 25.0061 38.6856 21.5788 37.7673C18.1505 36.8486 15.4053 34.6648 13.7054 31.8531C15.8739 30.4972 19.545 30.0425 23.3738 31.0684Z" fill="#2E2E2E"/>
</svg>
