<svg width="64" height="64" viewBox="0 0 64 64" fill="none" xmlns="http://www.w3.org/2000/svg">
<g clip-path="url(#clip0_1_2128)">
<path d="M6.77634 31.2125C6.77634 31.2125 9.30484 34.9271 14.6043 38.0714C14.6043 38.0714 10.7662 5.63363 35.7741 0C29.367 23.5151 43.9241 30.1467 49.2305 17.7232C58.0921 29.5546 51.3637 39.8769 51.3637 39.8769C54.9973 40.4004 58.0496 36.4306 58.0496 36.4306C58.0768 36.9196 58.0921 37.412 58.0921 37.9079C58.0922 52.3181 46.4103 64 32 64C17.5896 64 5.90771 52.3181 5.90771 37.9077C5.90771 35.593 6.21071 33.3493 6.77634 31.2125Z" fill="#FF6536"/>
<path d="M58.0498 36.4306C58.0498 36.4306 54.9975 40.4004 51.3639 39.8769C51.3639 39.8769 58.0922 29.5546 49.2306 17.7232C43.9243 30.1467 29.3671 23.5151 35.7743 0C34.4349 0.30175 33.1789 0.680875 32 1.12725V64C46.4104 64 58.0923 52.3181 58.0923 37.9077C58.0923 37.4119 58.077 36.9196 58.0498 36.4306Z" fill="#FF421D"/>
<path d="M20.5569 52.557C20.5569 58.8768 25.6801 64 31.9999 64C38.3196 64 43.4429 58.8768 43.4429 52.557C43.4429 49.1744 41.9753 46.1347 39.6419 44.0398C35.2176 50.0504 28.9129 40.9328 33.8264 34.2745C33.8264 34.2745 20.5569 35.9374 20.5569 52.557Z" fill="#FBBF00"/>
<path d="M43.443 52.557C43.443 49.1744 41.9754 46.1347 39.642 44.0398C35.2177 50.0504 28.913 40.9328 33.8265 34.2745C33.8265 34.2745 33.1055 34.3652 32 34.714V64C38.3197 64 43.443 58.8768 43.443 52.557Z" fill="#FFA900"/>
</g>
<defs>
<clipPath id="clip0_1_2128">
<rect width="64" height="64" fill="white"/>
</clipPath>
</defs>
</svg>
